<?xml version="1.0" encoding="utf-8"?>
<!-- Generator: Adobe Illustrator 28.0.0, SVG Export Plug-In . SVG Version: 6.00 Build 0)  -->
<svg version="1.1" id="Layer_1" xmlns="http://www.w3.org/2000/svg" xmlns:xlink="http://www.w3.org/1999/xlink" x="0px" y="0px"
	 viewBox="0 0 500 500" style="enable-background:new 0 0 500 500;" xml:space="preserve">
<style type="text/css">
	.st0{enable-background:new    ;}
	.st1{fill:#FFFFFF;}
	.st2{fill:#FF3135;}
	.st3{fill:#630000;}
</style>
<g class="st0">
	<path class="st1" d="M52,447.4h-4.2V468H38v-52h9.9v23.4h3.9L70.3,416h11.2v1l-22.5,25.8L82.4,467v1H70.9L52,447.4z"/>
	<path class="st1" d="M87.3,420.3v-7.5h10.1v7.5H87.3z M87.6,468v-40.8H97V468H87.6z"/>
	<path class="st1" d="M116.6,468h-9.3v-40.8h9.1V438h0.8c2.3-7.5,7.5-11.8,14.3-11.8c8.5,0,12.6,5.7,12.6,14.6V468h-9.3v-24.8
		c0-4.9-2.2-8.6-7.8-8.6c-6.2,0-10.4,4.2-10.4,10.3V468z"/>
	<path class="st1" d="M169.3,482.9c-15.4,0-19.9-3.3-19.9-8.5c0-3.6,3.8-6.2,9.4-7.4v-0.3c-3.6-0.7-5.6-2.6-5.6-5.5
		c0-2.2,1.7-4.1,4.6-5.5l3.1-1.7c-6.1-2-9.3-6.4-9.3-12.6c0-9.2,6.7-14.2,18-14.2h20.2v7.2h-4.7c-2.2,0-4.8-0.2-8.2-0.4l-0.1,0.8
		c5.4,1,9.9,3.3,9.9,8.7c0,7.3-6.2,11.7-17.5,11.7c-2.6,0-4.9-0.3-6.9-0.8l-1,1.5c-0.6,1-1,1.7-1,2.6c0,1.6,1.3,2.3,4,2.3
		c4.6,0,9.3-0.1,13.7-0.1c8.6,0,12.7,3.7,12.7,10.1C190.7,478.9,185.4,482.9,169.3,482.9z M183.3,470.9c0-2.3-1.6-4-5.6-4h-14.3
		c-4.4,0-6.7,2.3-6.7,4.5c0,3.3,2.6,4.7,13.2,4.7C180.7,476.1,183.3,474.4,183.3,470.9z M160,441.6c0,4.3,2.4,7.1,9.2,7.1
		c6.8,0,9.5-2.8,9.5-7.1c0-4.3-3.1-7.1-9.5-7.1C162.6,434.5,160,437.4,160,441.6z"/>
	<path class="st1" d="M233.1,448.5h-9.7V468h-9.9v-52h21.9c13,0,19.2,5.5,19.2,15.8c0,8.2-4.2,13.5-11.4,15.7l14.5,19.6v1h-11.5
		L233.1,448.5z M223.4,424.3v15.9h11.1c6.8,0,10.3-2.6,10.3-8.2c0-5.3-2.7-7.7-10.1-7.7H223.4z"/>
	<path class="st1" d="M289.2,458.3h-1c-2.1,6.6-6.8,10.6-14,10.6c-7.3,0-12.4-3.5-12.4-11.4c0-7.3,4.4-12.6,14.7-12.6h12.1v-2.8
		c0-5.3-2.2-8.3-7.9-8.3c-4.8,0-7.5,2.4-8.6,7.2l-8.8-2c1.6-7.7,7.4-12.7,17.8-12.7c11.8,0,16.8,5.6,16.8,15.7v26h-8.8V458.3z
		 M288.8,452.6V451h-10.6c-4.7,0-7.4,1.7-7.4,5.1c0,2.9,1.8,5.5,7.1,5.5C284.5,461.6,288.8,457.8,288.8,452.6z"/>
	<path class="st1" d="M316.8,468h-9.3v-40.8h9.1V438h0.8c2.3-7.6,7.4-11.8,14.3-11.8c7.6,0,11.4,4.7,12.1,12.2h1
		c2-7.8,6.8-12.2,14.3-12.2c8.6,0,12.7,5.7,12.7,14.6V468h-9.4v-24.8c0-4.9-2.3-8.6-7.7-8.6c-6.4,0-10.4,4.2-10.4,10.3V468H335
		v-24.8c0-4.9-2.3-8.6-7.8-8.6c-6.2,0-10.4,4.2-10.4,10.3V468z"/>
	<path class="st1" d="M378.8,448.1c0-13.8,7.8-21.9,20.6-21.9c12.3,0,18.3,7.5,18.3,18.6c0,1.6,0,3.4-0.2,5.5h-29.4
		c0.7,7.4,4.4,11.1,11.4,11.1c6.5,0,8.8-3.1,9.9-7l8,2.3c-1.9,7.4-7,12.4-17.9,12.4C386.9,469,378.8,461.8,378.8,448.1z
		 M388.2,444.1h20.9c-0.3-7-3.5-10.7-10-10.7C392.8,433.4,389.1,436.8,388.2,444.1z"/>
	<path class="st1" d="M434.5,468h-9.3v-40.8h9.1V438h0.8c2.3-7.5,7.5-11.8,14.3-11.8c8.5,0,12.6,5.7,12.6,14.6V468h-9.3v-24.8
		c0-4.9-2.2-8.6-7.8-8.6c-6.2,0-10.4,4.2-10.4,10.3V468z"/>
</g>
<path id="CUSTOM-Form1" class="st2" d="M346,295.1h28c-3.2,4.9-6.5,9.4-10,13.9h-28H136.3c-3.7-4.4-7-9-10-13.9H346z M250,67.5
	c-4.7,0-9.4,0.2-13.9,0.7c-74.9,7-133.5,70.2-133.5,146.9c0,14.2,2,28,5.9,41h255.4h28c3.9-13.1,5.9-26.8,5.9-41
	C397.5,133.5,331.6,67.5,250,67.5z M148,321.6c23.3,22.3,53.9,37.2,88.1,40.4c4.5,0.5,9.2,0.7,13.9,0.7c39.5,0,75.5-15.6,102-41h-28
	H148L148,321.6z M112.5,268.7c1.8,4.7,4,9.4,6.2,13.9h234.4h28c2.3-4.5,4.4-9,6.2-13.9h-28H112.5z"/>
<rect id="CUSTOM-Form2" x="37.5" y="135.2" transform="matrix(0.8162 -0.5778 0.5778 0.8162 -35.783 170.4736)" class="st3" width="425" height="12.6"/>
<rect id="CUSTOM-Form3" x="37.5" y="204.7" class="st3" width="425" height="12.6"/>
<g class="st0">
	<path class="st3" d="M307.5,204.8h58.9v7.6h-58.9V204.8z M310.6,158.4H363v7.6h-52.4V158.4z M313.7,180.6h46.8v7.6h-46.8V180.6z
		 M332.7,160.5h8.2v49.2h-8.2V160.5z"/>
</g>
</svg>
